<svg width="27" height="27" viewBox="0 0 27 27" fill="none" xmlns="http://www.w3.org/2000/svg">
<path d="M13.5 0C5.886 0 0 5.57571 0 13.0955C0 17.0241 1.6065 20.4398 4.239 22.7754C4.455 22.9509 4.59 23.2479 4.6035 23.5449L4.671 25.948C4.725 26.7175 5.4945 27.217 6.1965 26.9065L8.8695 25.732C9.099 25.651 9.3555 25.6105 9.585 25.651C10.8 26.0155 12.15 26.191 13.5 26.191C21.114 26.191 27 20.6153 27 13.0955C27 5.57571 21.114 0 13.5 0ZM21.6 10.0714L17.6445 16.3761C17.01 17.3616 15.66 17.6182 14.715 16.8756L11.556 14.54C11.2725 14.324 10.8675 14.324 10.584 14.54L6.318 17.7802C5.751 18.2257 5.0085 17.5507 5.4 16.9296L9.3555 10.6249C9.99 9.63936 11.34 9.38285 12.285 10.0849L15.444 12.461C15.741 12.677 16.1325 12.677 16.416 12.461L20.682 9.22084C21.249 8.77533 21.9915 9.45035 21.6 10.0714Z" fill="black"/>
</svg>
