<svg width="63" height="70" viewBox="0 0 63 70" fill="none" xmlns="http://www.w3.org/2000/svg">
<path d="M54.4444 33.0556V15.5556L46.2389 19.6778C46.5111 20.8444 46.6667 22.05 46.6667 23.3333C46.6667 31.9278 39.7056 38.8889 31.1111 38.8889C22.5167 38.8889 15.5556 31.9278 15.5556 23.3333C15.5556 22.05 15.7111 20.8444 15.9833 19.6778L3.88889 13.6111L31.1111 0L58.3333 13.6111V33.0556H54.4444ZM31.1111 27.2222L23.3333 23.3333C23.3333 27.6111 26.8333 31.1111 31.1111 31.1111C35.3889 31.1111 38.8889 27.6111 38.8889 23.3333L31.1111 27.2222ZM41.8056 13.3L31.7333 8.16667L21.2722 13.4944L31.3833 18.6278L41.8056 13.3ZM31.1111 42.7778C41.4944 42.7778 62.2222 47.95 62.2222 58.3333V70H0V58.3333C0 47.95 20.7278 42.7778 31.1111 42.7778ZM31.1111 50.1667C19.4444 50.1667 7.38889 55.8444 7.38889 58.3333V62.6111H54.8333V58.3333C54.8333 55.8444 42.6611 50.1667 31.1111 50.1667Z" fill="black"/>
</svg>
